<mxfile host="app.diagrams.net" modified="2024-05-24T11:11:51.996Z" agent="Mozilla/5.0 (Windows NT 10.0; Win64; x64) AppleWebKit/537.36 (KHTML, like Gecko) Chrome/124.0.0.0 Safari/537.36" etag="T5RJz6dEgrNa4343M13D" version="24.3.1" type="device">
  <diagram name="Страница — 1" id="-T-6zJHdSF50HlnGQDp4">
    <mxGraphModel dx="1834" dy="818" grid="0" gridSize="10" guides="1" tooltips="1" connect="1" arrows="1" fold="1" page="0" pageScale="1" pageWidth="827" pageHeight="1169" math="0" shadow="0">
      <root>
        <mxCell id="0" />
        <mxCell id="1" parent="0" />
        <mxCell id="5gFF-Uz_lDo40yvDek0T-1" value="&lt;div&gt;Гость&lt;/div&gt;&lt;div&gt;&lt;br&gt;&lt;/div&gt;" style="shape=umlActor;verticalLabelPosition=bottom;verticalAlign=top;html=1;outlineConnect=0;" parent="1" vertex="1">
          <mxGeometry x="267" y="171" width="30" height="60" as="geometry" />
        </mxCell>
        <mxCell id="5gFF-Uz_lDo40yvDek0T-2" value="Вход в систему" style="ellipse;whiteSpace=wrap;html=1;" parent="1" vertex="1">
          <mxGeometry x="419" y="133" width="100" height="40" as="geometry" />
        </mxCell>
        <mxCell id="5gFF-Uz_lDo40yvDek0T-3" value="Регистрация в системе" style="ellipse;whiteSpace=wrap;html=1;" parent="1" vertex="1">
          <mxGeometry x="419" y="181" width="100" height="40" as="geometry" />
        </mxCell>
        <mxCell id="5gFF-Uz_lDo40yvDek0T-9" value="Пользователь" style="shape=umlActor;verticalLabelPosition=bottom;verticalAlign=top;html=1;outlineConnect=0;" parent="1" vertex="1">
          <mxGeometry x="319" y="455" width="30" height="60" as="geometry" />
        </mxCell>
        <mxCell id="5gFF-Uz_lDo40yvDek0T-11" value="Просмотр профиля" style="ellipse;whiteSpace=wrap;html=1;" parent="1" vertex="1">
          <mxGeometry x="-1" y="565" width="100" height="40" as="geometry" />
        </mxCell>
        <mxCell id="5gFF-Uz_lDo40yvDek0T-12" value="Просмотр истории заказов" style="ellipse;whiteSpace=wrap;html=1;" parent="1" vertex="1">
          <mxGeometry x="-125" y="506" width="110" height="50" as="geometry" />
        </mxCell>
        <mxCell id="5gFF-Uz_lDo40yvDek0T-13" value="Просмотр каталога&amp;nbsp;" style="ellipse;whiteSpace=wrap;html=1;" parent="1" vertex="1">
          <mxGeometry x="88" y="609" width="100" height="40" as="geometry" />
        </mxCell>
        <mxCell id="5gFF-Uz_lDo40yvDek0T-14" value="Поиск по цене" style="ellipse;whiteSpace=wrap;html=1;" parent="1" vertex="1">
          <mxGeometry x="-12" y="696" width="100" height="40" as="geometry" />
        </mxCell>
        <mxCell id="5gFF-Uz_lDo40yvDek0T-25" value="Администратор" style="shape=umlActor;verticalLabelPosition=bottom;verticalAlign=top;html=1;outlineConnect=0;" parent="1" vertex="1">
          <mxGeometry x="589" y="395" width="30" height="60" as="geometry" />
        </mxCell>
        <mxCell id="5gFF-Uz_lDo40yvDek0T-28" value="Просмотр заказов" style="ellipse;whiteSpace=wrap;html=1;" parent="1" vertex="1">
          <mxGeometry x="542" y="560" width="100" height="40" as="geometry" />
        </mxCell>
        <mxCell id="RE3C2_orwHVAlQfHkg4f-3" value="Просмотр вопросов пользователей" style="ellipse;whiteSpace=wrap;html=1;" parent="1" vertex="1">
          <mxGeometry x="697" y="541" width="117" height="61" as="geometry" />
        </mxCell>
        <mxCell id="RE3C2_orwHVAlQfHkg4f-7" value="Управление заказами" style="ellipse;whiteSpace=wrap;html=1;" parent="1" vertex="1">
          <mxGeometry x="577" y="662" width="100" height="40" as="geometry" />
        </mxCell>
        <mxCell id="RE3C2_orwHVAlQfHkg4f-9" value="Управление&amp;nbsp;&lt;br&gt;вопросами" style="ellipse;whiteSpace=wrap;html=1;" parent="1" vertex="1">
          <mxGeometry x="844" y="638" width="100" height="40" as="geometry" />
        </mxCell>
        <mxCell id="RE3C2_orwHVAlQfHkg4f-13" value="Оформление заказа" style="ellipse;whiteSpace=wrap;html=1;" parent="1" vertex="1">
          <mxGeometry x="332" y="600" width="100" height="40" as="geometry" />
        </mxCell>
        <mxCell id="RE3C2_orwHVAlQfHkg4f-14" value="Поиск по марке авто" style="ellipse;whiteSpace=wrap;html=1;" parent="1" vertex="1">
          <mxGeometry x="125" y="711" width="100" height="40" as="geometry" />
        </mxCell>
        <mxCell id="RE3C2_orwHVAlQfHkg4f-16" value="extend" style="endArrow=open;endSize=12;dashed=1;html=1;rounded=0;exitX=1;exitY=0;exitDx=0;exitDy=0;entryX=0.09;entryY=0.875;entryDx=0;entryDy=0;entryPerimeter=0;" parent="1" source="5gFF-Uz_lDo40yvDek0T-14" target="5gFF-Uz_lDo40yvDek0T-13" edge="1">
          <mxGeometry width="160" relative="1" as="geometry">
            <mxPoint x="365" y="514" as="sourcePoint" />
            <mxPoint x="525" y="514" as="targetPoint" />
          </mxGeometry>
        </mxCell>
        <mxCell id="RE3C2_orwHVAlQfHkg4f-17" value="extend" style="endArrow=open;endSize=12;dashed=1;html=1;rounded=0;entryX=0.64;entryY=0.95;entryDx=0;entryDy=0;entryPerimeter=0;" parent="1" source="RE3C2_orwHVAlQfHkg4f-14" edge="1" target="5gFF-Uz_lDo40yvDek0T-13">
          <mxGeometry x="-0.0072" width="160" relative="1" as="geometry">
            <mxPoint x="128" y="690" as="sourcePoint" />
            <mxPoint x="225" y="653" as="targetPoint" />
            <mxPoint as="offset" />
          </mxGeometry>
        </mxCell>
        <mxCell id="RE3C2_orwHVAlQfHkg4f-19" value="Выбор способа оплаты" style="ellipse;whiteSpace=wrap;html=1;" parent="1" vertex="1">
          <mxGeometry x="263" y="726" width="100" height="40" as="geometry" />
        </mxCell>
        <mxCell id="RE3C2_orwHVAlQfHkg4f-20" value="Ввод данных" style="ellipse;whiteSpace=wrap;html=1;" parent="1" vertex="1">
          <mxGeometry x="384" y="726" width="100" height="40" as="geometry" />
        </mxCell>
        <mxCell id="RE3C2_orwHVAlQfHkg4f-22" value="include" style="endArrow=open;endSize=12;dashed=1;html=1;rounded=0;exitX=0.5;exitY=0;exitDx=0;exitDy=0;entryX=0.33;entryY=0.975;entryDx=0;entryDy=0;entryPerimeter=0;" parent="1" source="RE3C2_orwHVAlQfHkg4f-19" target="RE3C2_orwHVAlQfHkg4f-13" edge="1">
          <mxGeometry width="160" relative="1" as="geometry">
            <mxPoint x="161" y="681" as="sourcePoint" />
            <mxPoint x="241" y="647" as="targetPoint" />
          </mxGeometry>
        </mxCell>
        <mxCell id="RE3C2_orwHVAlQfHkg4f-23" value="include" style="endArrow=open;endSize=12;dashed=1;html=1;rounded=0;exitX=0.44;exitY=0.05;exitDx=0;exitDy=0;exitPerimeter=0;entryX=0.6;entryY=1;entryDx=0;entryDy=0;entryPerimeter=0;" parent="1" source="RE3C2_orwHVAlQfHkg4f-20" target="RE3C2_orwHVAlQfHkg4f-13" edge="1">
          <mxGeometry width="160" relative="1" as="geometry">
            <mxPoint x="171" y="691" as="sourcePoint" />
            <mxPoint x="251" y="657" as="targetPoint" />
          </mxGeometry>
        </mxCell>
        <mxCell id="RE3C2_orwHVAlQfHkg4f-24" value="include" style="endArrow=open;endSize=12;dashed=1;html=1;rounded=0;exitX=0.43;exitY=0.025;exitDx=0;exitDy=0;exitPerimeter=0;entryX=0.5;entryY=1;entryDx=0;entryDy=0;" parent="1" source="RE3C2_orwHVAlQfHkg4f-7" target="5gFF-Uz_lDo40yvDek0T-28" edge="1">
          <mxGeometry width="160" relative="1" as="geometry">
            <mxPoint x="148" y="710" as="sourcePoint" />
            <mxPoint x="228" y="676" as="targetPoint" />
          </mxGeometry>
        </mxCell>
        <mxCell id="RE3C2_orwHVAlQfHkg4f-25" value="include" style="endArrow=open;endSize=12;dashed=1;html=1;rounded=0;exitX=0.5;exitY=0;exitDx=0;exitDy=0;entryX=1;entryY=1;entryDx=0;entryDy=0;" parent="1" source="RE3C2_orwHVAlQfHkg4f-9" target="RE3C2_orwHVAlQfHkg4f-3" edge="1">
          <mxGeometry width="160" relative="1" as="geometry">
            <mxPoint x="158" y="720" as="sourcePoint" />
            <mxPoint x="238" y="686" as="targetPoint" />
          </mxGeometry>
        </mxCell>
        <mxCell id="19PLWRoW6S3sb4UM3XIx-1" value="Просмотр пользователей" style="ellipse;whiteSpace=wrap;html=1;" parent="1" vertex="1">
          <mxGeometry x="662" y="302" width="100" height="40" as="geometry" />
        </mxCell>
        <mxCell id="19PLWRoW6S3sb4UM3XIx-2" value="Просмотр истории заказав любого пользователя" style="ellipse;whiteSpace=wrap;html=1;" parent="1" vertex="1">
          <mxGeometry x="883" y="320" width="141" height="64" as="geometry" />
        </mxCell>
        <mxCell id="19PLWRoW6S3sb4UM3XIx-3" value="include" style="endArrow=open;endSize=12;dashed=1;html=1;rounded=0;entryX=1;entryY=0.5;entryDx=0;entryDy=0;exitX=0.045;exitY=0.7;exitDx=0;exitDy=0;exitPerimeter=0;" parent="1" source="19PLWRoW6S3sb4UM3XIx-9" target="19PLWRoW6S3sb4UM3XIx-1" edge="1">
          <mxGeometry width="160" relative="1" as="geometry">
            <mxPoint x="726" y="256" as="sourcePoint" />
            <mxPoint x="742" y="171" as="targetPoint" />
          </mxGeometry>
        </mxCell>
        <mxCell id="19PLWRoW6S3sb4UM3XIx-6" value="Редактирование профиля" style="ellipse;whiteSpace=wrap;html=1;" parent="1" vertex="1">
          <mxGeometry x="-115" y="649" width="100" height="40" as="geometry" />
        </mxCell>
        <mxCell id="19PLWRoW6S3sb4UM3XIx-7" value="extend" style="endArrow=open;endSize=12;dashed=1;html=1;rounded=0;exitX=1;exitY=0;exitDx=0;exitDy=0;entryX=0.25;entryY=0.975;entryDx=0;entryDy=0;entryPerimeter=0;" parent="1" source="19PLWRoW6S3sb4UM3XIx-6" target="5gFF-Uz_lDo40yvDek0T-11" edge="1">
          <mxGeometry width="160" relative="1" as="geometry">
            <mxPoint x="342" y="435" as="sourcePoint" />
            <mxPoint x="175" y="567" as="targetPoint" />
          </mxGeometry>
        </mxCell>
        <mxCell id="19PLWRoW6S3sb4UM3XIx-8" value="Удаление/восстановление пользователя" style="ellipse;whiteSpace=wrap;html=1;" parent="1" vertex="1">
          <mxGeometry x="780" y="181" width="174" height="55" as="geometry" />
        </mxCell>
        <mxCell id="19PLWRoW6S3sb4UM3XIx-9" value="Просмотр истории вопросов любого пользваотеля" style="ellipse;whiteSpace=wrap;html=1;" parent="1" vertex="1">
          <mxGeometry x="902" y="236" width="141" height="61" as="geometry" />
        </mxCell>
        <mxCell id="19PLWRoW6S3sb4UM3XIx-10" value="include" style="endArrow=open;endSize=12;dashed=1;html=1;rounded=0;entryX=0.99;entryY=0.775;entryDx=0;entryDy=0;entryPerimeter=0;exitX=0;exitY=0.5;exitDx=0;exitDy=0;" parent="1" source="19PLWRoW6S3sb4UM3XIx-2" target="19PLWRoW6S3sb4UM3XIx-1" edge="1">
          <mxGeometry width="160" relative="1" as="geometry">
            <mxPoint x="739" y="257" as="sourcePoint" />
            <mxPoint x="714" y="348" as="targetPoint" />
          </mxGeometry>
        </mxCell>
        <mxCell id="19PLWRoW6S3sb4UM3XIx-11" value="include" style="endArrow=open;endSize=12;dashed=1;html=1;rounded=0;entryX=1;entryY=0;entryDx=0;entryDy=0;" parent="1" source="19PLWRoW6S3sb4UM3XIx-8" target="19PLWRoW6S3sb4UM3XIx-1" edge="1">
          <mxGeometry width="160" relative="1" as="geometry">
            <mxPoint x="749" y="267" as="sourcePoint" />
            <mxPoint x="652" y="343" as="targetPoint" />
          </mxGeometry>
        </mxCell>
        <mxCell id="Hq683X5As9WXZGZEdHQg-1" value="Просмотр автомобилей" style="ellipse;whiteSpace=wrap;html=1;" parent="1" vertex="1">
          <mxGeometry x="759" y="433.5" width="100" height="40" as="geometry" />
        </mxCell>
        <mxCell id="Hq683X5As9WXZGZEdHQg-3" value="Управление автомобилями" style="ellipse;whiteSpace=wrap;html=1;" parent="1" vertex="1">
          <mxGeometry x="966" y="433.5" width="107" height="47" as="geometry" />
        </mxCell>
        <mxCell id="Hq683X5As9WXZGZEdHQg-4" value="include" style="endArrow=open;endSize=12;dashed=1;html=1;rounded=0;exitX=0;exitY=0.5;exitDx=0;exitDy=0;entryX=1;entryY=0.5;entryDx=0;entryDy=0;exitPerimeter=0;" parent="1" source="Hq683X5As9WXZGZEdHQg-3" target="Hq683X5As9WXZGZEdHQg-1" edge="1">
          <mxGeometry width="160" relative="1" as="geometry">
            <mxPoint x="302.5" y="563" as="sourcePoint" />
            <mxPoint x="898.5" y="469" as="targetPoint" />
          </mxGeometry>
        </mxCell>
        <mxCell id="7jm--NdYJyYAwCk0pzev-3" value="" style="endArrow=classic;html=1;rounded=0;entryX=0;entryY=0.5;entryDx=0;entryDy=0;" edge="1" parent="1" target="5gFF-Uz_lDo40yvDek0T-2">
          <mxGeometry width="50" height="50" relative="1" as="geometry">
            <mxPoint x="313" y="186" as="sourcePoint" />
            <mxPoint x="562" y="502" as="targetPoint" />
          </mxGeometry>
        </mxCell>
        <mxCell id="7jm--NdYJyYAwCk0pzev-4" value="" style="endArrow=classic;html=1;rounded=0;entryX=0;entryY=0.5;entryDx=0;entryDy=0;" edge="1" parent="1" target="5gFF-Uz_lDo40yvDek0T-3">
          <mxGeometry width="50" height="50" relative="1" as="geometry">
            <mxPoint x="315" y="203" as="sourcePoint" />
            <mxPoint x="562" y="502" as="targetPoint" />
          </mxGeometry>
        </mxCell>
        <mxCell id="7jm--NdYJyYAwCk0pzev-5" value="" style="endArrow=classic;html=1;rounded=0;" edge="1" parent="1">
          <mxGeometry width="50" height="50" relative="1" as="geometry">
            <mxPoint x="319" y="235" as="sourcePoint" />
            <mxPoint x="573" y="420" as="targetPoint" />
          </mxGeometry>
        </mxCell>
        <mxCell id="7jm--NdYJyYAwCk0pzev-6" value="" style="endArrow=classic;html=1;rounded=0;entryX=0.03;entryY=0.75;entryDx=0;entryDy=0;entryPerimeter=0;" edge="1" parent="1" target="19PLWRoW6S3sb4UM3XIx-1">
          <mxGeometry width="50" height="50" relative="1" as="geometry">
            <mxPoint x="622" y="384" as="sourcePoint" />
            <mxPoint x="562" y="502" as="targetPoint" />
          </mxGeometry>
        </mxCell>
        <mxCell id="7jm--NdYJyYAwCk0pzev-7" value="" style="endArrow=classic;html=1;rounded=0;entryX=0;entryY=0.5;entryDx=0;entryDy=0;" edge="1" parent="1" target="Hq683X5As9WXZGZEdHQg-1">
          <mxGeometry width="50" height="50" relative="1" as="geometry">
            <mxPoint x="645" y="434" as="sourcePoint" />
            <mxPoint x="562" y="502" as="targetPoint" />
          </mxGeometry>
        </mxCell>
        <mxCell id="7jm--NdYJyYAwCk0pzev-8" value="" style="endArrow=classic;html=1;rounded=0;entryX=0.214;entryY=0.049;entryDx=0;entryDy=0;entryPerimeter=0;" edge="1" parent="1" target="RE3C2_orwHVAlQfHkg4f-3">
          <mxGeometry width="50" height="50" relative="1" as="geometry">
            <mxPoint x="641" y="488" as="sourcePoint" />
            <mxPoint x="562" y="502" as="targetPoint" />
          </mxGeometry>
        </mxCell>
        <mxCell id="7jm--NdYJyYAwCk0pzev-9" value="" style="endArrow=classic;html=1;rounded=0;entryX=0.54;entryY=0;entryDx=0;entryDy=0;entryPerimeter=0;" edge="1" parent="1" target="5gFF-Uz_lDo40yvDek0T-28">
          <mxGeometry width="50" height="50" relative="1" as="geometry">
            <mxPoint x="597" y="494" as="sourcePoint" />
            <mxPoint x="562" y="502" as="targetPoint" />
          </mxGeometry>
        </mxCell>
        <mxCell id="7jm--NdYJyYAwCk0pzev-10" value="" style="endArrow=classic;html=1;rounded=0;entryX=0.5;entryY=0;entryDx=0;entryDy=0;" edge="1" parent="1" target="RE3C2_orwHVAlQfHkg4f-13">
          <mxGeometry width="50" height="50" relative="1" as="geometry">
            <mxPoint x="350" y="549" as="sourcePoint" />
            <mxPoint x="562" y="502" as="targetPoint" />
          </mxGeometry>
        </mxCell>
        <mxCell id="7jm--NdYJyYAwCk0pzev-12" value="" style="endArrow=classic;html=1;rounded=0;entryX=0.79;entryY=0;entryDx=0;entryDy=0;entryPerimeter=0;" edge="1" parent="1" target="5gFF-Uz_lDo40yvDek0T-13">
          <mxGeometry width="50" height="50" relative="1" as="geometry">
            <mxPoint x="286" y="537" as="sourcePoint" />
            <mxPoint x="562" y="502" as="targetPoint" />
          </mxGeometry>
        </mxCell>
        <mxCell id="7jm--NdYJyYAwCk0pzev-13" value="" style="endArrow=classic;html=1;rounded=0;entryX=1;entryY=0.3;entryDx=0;entryDy=0;entryPerimeter=0;" edge="1" parent="1" target="5gFF-Uz_lDo40yvDek0T-11">
          <mxGeometry width="50" height="50" relative="1" as="geometry">
            <mxPoint x="273" y="514" as="sourcePoint" />
            <mxPoint x="562" y="502" as="targetPoint" />
          </mxGeometry>
        </mxCell>
        <mxCell id="7jm--NdYJyYAwCk0pzev-14" value="" style="endArrow=classic;html=1;rounded=0;entryX=1;entryY=0.5;entryDx=0;entryDy=0;" edge="1" parent="1" target="5gFF-Uz_lDo40yvDek0T-12">
          <mxGeometry width="50" height="50" relative="1" as="geometry">
            <mxPoint x="270" y="485" as="sourcePoint" />
            <mxPoint x="562" y="502" as="targetPoint" />
          </mxGeometry>
        </mxCell>
        <mxCell id="7jm--NdYJyYAwCk0pzev-15" value="" style="endArrow=classic;html=1;rounded=0;" edge="1" parent="1">
          <mxGeometry width="50" height="50" relative="1" as="geometry">
            <mxPoint x="262" y="260" as="sourcePoint" />
            <mxPoint x="324" y="440" as="targetPoint" />
          </mxGeometry>
        </mxCell>
      </root>
    </mxGraphModel>
  </diagram>
</mxfile>
